<svg width="1280" height="801" viewBox="0 0 1280 801" fill="none" xmlns="http://www.w3.org/2000/svg">
<path d="M1280 74.3V202C1275.3 203.7 1270.4 204.9 1265.2 205.5C1228 210.1 1194 183.7 1189.4 146.5C1184.8 109.3 1211.2 75.3 1248.4 70.7C1259.5 69.4 1270.2 70.8 1280 74.3Z" fill="#2F2544"/>
<path d="M349 343.4C371 339.8 385.8 319.1 382.2 297.1C378.6 275.1 357.9 260.3 335.9 263.9C313.9 267.5 299.1 288.2 302.7 310.2C306.4 332.1 327.1 346.9 349 343.4Z" fill="#03CADA"/>
<path d="M1076.7 481.5L1000.4 556.3L1116.4 549.3L1076.7 481.5ZM1076.1 487.1L1110.7 546.2L1009.3 552.3L1076.1 487.1Z" fill="#03CADA"/>
<path d="M335.4 136.6L305.6 166.4L328 188.8L357.8 159L335.4 136.6Z" fill="#2F2544"/>
<path d="M126.7 800H75.8999L85.5999 790.3L87.0999 788.8L101.3 774.6L126.7 800Z" fill="#2F2544"/>
<path d="M850.3 627.7C878.4 622.3 896.7 595.2 891.4 567.2C886 539.1 858.9 520.8 830.9 526.1C802.8 531.5 784.5 558.6 789.8 586.6C795.2 614.6 822.3 633 850.3 627.7Z" fill="#03CADA"/>
<path d="M805 583.8L792.6 596.2L776.5 612.3L798.7 634.5L812.8 620.4L827.2 606L805 583.8ZM809.3 618L798.7 628.5L782.5 612.3L804.9 589.9L821.1 606.1L809.3 618Z" fill="#2F2544"/>
<path d="M820 67.3L777 110.3L810.6 143.9L853.6 100.9L820 67.3ZM786.2 110.5L820.2 76.5L844.6 100.9L810.6 134.9L786.2 110.5Z" fill="#03CADA"/>
<path d="M717.7 52.9C717.7 48 713.6 43.9 708.7 43.9C703.8 43.9 699.7 48 699.7 52.9C699.7 57.8 703.8 61.9 708.7 61.9C713.6 62 717.7 57.9 717.7 52.9Z" fill="#7B6490"/>
<path d="M176.3 460C181 448.9 175.8 436.1 164.7 431.4C153.6 426.7 140.8 431.9 136.1 443C131.4 454.1 136.6 466.9 147.7 471.6C158.8 476.3 171.6 471.1 176.3 460Z" fill="#03CADA"/>
<path d="M148.3 373.1C148.3 371.4 146.9 370 145.2 370C143.5 370 142.1 371.4 142.1 373.1C142.1 374.8 143.5 376.2 145.2 376.2C146.9 376.1 148.3 374.8 148.3 373.1Z" fill="#2F2544"/>
<path d="M177.2 373.1C177.2 371.4 175.8 370 174.1 370C172.4 370 171 371.4 171 373.1C171 374.8 172.4 376.2 174.1 376.2C175.8 376.2 177.2 374.8 177.2 373.1Z" fill="#2F2544"/>
<path d="M206 373.1C206 371.4 204.6 370 202.9 370C201.2 370 199.8 371.4 199.8 373.1C199.8 374.8 201.2 376.2 202.9 376.2C204.6 376.1 206 374.8 206 373.1Z" fill="#2F2544"/>
<path d="M162.3 387.2C162.3 385.5 160.9 384.1 159.2 384.1C157.5 384.1 156.1 385.5 156.1 387.2C156.1 388.9 157.5 390.3 159.2 390.3C160.9 390.1 162.3 388.8 162.3 387.2Z" fill="#2F2544"/>
<path d="M191.2 387.2C191.2 385.5 189.8 384.1 188.1 384.1C186.4 384.1 185 385.5 185 387.2C185 388.9 186.4 390.3 188.1 390.3C189.8 390.3 191.2 388.8 191.2 387.2Z" fill="#2F2544"/>
<path d="M148.3 402.4C148.3 400.7 146.9 399.3 145.2 399.3C143.5 399.3 142.1 400.7 142.1 402.4C142.1 404.1 143.5 405.5 145.2 405.5C146.9 405.5 148.3 404.1 148.3 402.4Z" fill="#2F2544"/>
<path d="M177.2 402.4C177.2 400.7 175.8 399.3 174.1 399.3C172.4 399.3 171 400.7 171 402.4C171 404.1 172.4 405.5 174.1 405.5C175.8 405.5 177.2 404.1 177.2 402.4Z" fill="#2F2544"/>
<path d="M206 402.4C206 400.7 204.6 399.3 202.9 399.3C201.2 399.3 199.8 400.7 199.8 402.4C199.8 404.1 201.2 405.5 202.9 405.5C204.6 405.5 206 404.1 206 402.4Z" fill="#2F2544"/>
<path d="M162.3 416.6C162.3 414.9 160.9 413.5 159.2 413.5C157.5 413.5 156.1 414.9 156.1 416.6C156.1 418.3 157.5 419.7 159.2 419.7C160.9 419.5 162.3 418.1 162.3 416.6Z" fill="#2F2544"/>
<path d="M191.2 416.6C191.2 414.9 189.8 413.5 188.1 413.5C186.4 413.5 185 414.9 185 416.6C185 418.3 186.4 419.7 188.1 419.7C189.8 419.7 191.2 418.1 191.2 416.6Z" fill="#2F2544"/>
<path d="M148.3 431.6C148.3 429.9 146.9 428.5 145.2 428.5C143.5 428.5 142.1 429.9 142.1 431.6C142.1 433.3 143.5 434.7 145.2 434.7C146.9 434.7 148.3 433.3 148.3 431.6Z" fill="#2F2544"/>
<path d="M177.2 431.6C177.2 429.9 175.8 428.5 174.1 428.5C172.4 428.5 171 429.9 171 431.6C171 433.3 172.4 434.7 174.1 434.7C175.8 434.7 177.2 433.3 177.2 431.6Z" fill="#2F2544"/>
<path d="M206 431.6C206 429.9 204.6 428.5 202.9 428.5C201.2 428.5 199.8 429.9 199.8 431.6C199.8 433.3 201.2 434.7 202.9 434.7C204.6 434.7 206 433.3 206 431.6Z" fill="#2F2544"/>
<path d="M162.3 445.6C162.3 443.9 160.9 442.5 159.2 442.5C157.5 442.5 156.1 443.9 156.1 445.6C156.1 447.3 157.5 448.7 159.2 448.7C160.9 448.7 162.3 447.3 162.3 445.6Z" fill="#2F2544"/>
<path d="M191.2 445.6C191.2 443.9 189.8 442.5 188.1 442.5C186.4 442.5 185 443.9 185 445.6C185 447.3 186.4 448.7 188.1 448.7C189.8 448.7 191.2 447.3 191.2 445.6Z" fill="#2F2544"/>
<path d="M524.1 751.6L492.5 720C485 715.4 476.8 711.8 468.6 709.4L534.6 775.4C532.5 767.3 528.9 759.1 524.1 751.6Z" fill="#2F2544"/>
<path d="M538.5 800H534L439.9 705.9C444.5 705.7 449.3 706.1 453.9 706.6L537.9 790.6C538.1 793.7 538.4 796.8 538.5 800Z" fill="#2F2544"/>
<path d="M522.2 800H508.9L417.7 708.8C421.3 707.8 425 707.1 428.8 706.6L522.2 800Z" fill="#2F2544"/>
<path d="M496.8 800H483.4L399.2 715.8C402.3 714.3 405.4 712.9 408.6 711.7L496.8 800Z" fill="#2F2544"/>
<path d="M471.6 800H458.3L383.6 725.3C386.2 723.2 388.7 721.5 391.5 719.8L471.6 800Z" fill="#2F2544"/>
<path d="M446.4 800H433.1L370.6 737.5C371.6 736.3 372.6 735.3 373.8 734.1C375 733.1 376 731.9 377.2 730.8L446.4 800Z" fill="#2F2544"/>
<path d="M421.3 800H408L359.8 751.8C361.5 749.2 363.4 746.5 365.3 744L421.3 800Z" fill="#2F2544"/>
<path d="M396 800H382.6L351.4 768.8C352.6 765.6 354 762.5 355.5 759.4L396 800Z" fill="#2F2544"/>
<path d="M370.8 800H357.5L346.5 789C347 785.2 347.7 781.7 348.7 777.9L370.8 800Z" fill="#2F2544"/>
<path d="M1137.2 0L1038.9 98.3C1036.2 97.6 1033.6 96.8 1030.9 95.7L1083.8 42.8L1126.6 0H1137.2Z" fill="#03CADA"/>
<path d="M979.6 0L975.2 4.4C975.4 2.9 975.6 1.4 975.9 0H979.6Z" fill="#03CADA"/>
<path d="M1146 3.09998L1048.9 100.2C1052.1 100.7 1055.4 100.9 1058.8 101.1L1146.9 13C1146.7 9.69998 1146.4 6.29998 1146 3.09998Z" fill="#03CADA"/>
<path d="M1114.6 0L1022.4 92.2C1020 91 1017.8 89.8 1015.6 88.4L1104 0H1114.6Z" fill="#03CADA"/>
<path d="M1002.2 0L975.4 26.8C974.9 23.4 974.5 20.2 974.5 16.9L991.4 0H1002.2Z" fill="#03CADA"/>
<path d="M1047 0L987.1 59.9C985.7 57.7 984.5 55.5 983.3 53.1L1036.5 0H1047Z" fill="#03CADA"/>
<path d="M1146.2 25.4L1071.3 100.3C1075.7 99.8 1080.2 98.9 1084.6 97.6L1143.5 38.7C1144.7 34.5 1145.5 30 1146.2 25.4Z" fill="#03CADA"/>
<path d="M1024.6 0L979.8 44.7C978.8 42.1 977.9 39.4 977.2 36.7L1013.9 0H1024.6Z" fill="#03CADA"/>
<path d="M1092.3 0L1008.7 83.6C1006.6 82.1 1004.8 80.5 1002.9 78.8L1081.7 0H1092.3Z" fill="#03CADA"/>
<path d="M1069.7 0L996.8 72.9C995.1 71 993.6 69.1 992 67.1L1059.2 0H1069.7Z" fill="#03CADA"/>
<path d="M1133.9 60.1L1105.7 88.3C1111.3 84.9 1116.6 80.8 1121.4 75.8C1126.4 71 1130.5 65.7 1133.9 60.1Z" fill="#03CADA"/>
<path d="M561.5 470.7L461.5 570.7C463.9 571.6 466.3 572.4 468.8 572.9L563.7 478C563.2 475.5 562.4 473.1 561.5 470.7Z" fill="#03CADA"/>
<path d="M433.5 442.7C429.1 447.1 425.3 451.9 422.2 456.9L447.6 431.5C442.5 434.5 437.8 438.3 433.5 442.7Z" fill="#03CADA"/>
<path d="M466.9 422.9L413.7 476.1C412.5 480 411.8 484.1 411.3 488L479.1 420.2C475 420.9 470.9 421.7 466.9 422.9Z" fill="#03CADA"/>
<path d="M565.6 486.9L477.9 574.6C480.8 574.9 483.9 575.3 486.8 575.3L566.3 495.8C566.1 492.9 565.9 490 565.6 486.9Z" fill="#03CADA"/>
<path d="M554.8 457L447.8 564C449.8 565.2 451.9 566.4 453.9 567.4L558.2 463.1C557.2 461.1 556 459.1 554.8 457Z" fill="#03CADA"/>
<path d="M490.3 419.8L410.8 499.3C410.8 502.2 411.1 505.3 411.5 508.2L499.2 420.5C496.1 420.2 493.2 420 490.3 419.8Z" fill="#03CADA"/>
<path d="M522.9 427.9L418.6 532.1C419.6 534.1 420.8 536.2 422 538.2L529 431.2C527 430.1 525 428.9 522.9 427.9Z" fill="#03CADA"/>
<path d="M565.8 507.2L498 575C502.1 574.5 506 573.6 509.9 572.6L563.1 519.4C564.4 515.2 565.3 511.1 565.8 507.2Z" fill="#03CADA"/>
<path d="M508.1 422.4L413.2 517.3C413.9 519.7 414.6 522.2 415.4 524.6L515.4 424.6C513 423.8 510.6 423.1 508.1 422.4Z" fill="#03CADA"/>
<path d="M546.1 445.4L436.2 555.3C437.9 556.8 439.6 558.2 441.5 559.6L550.6 450.5C549 448.9 547.7 447.1 546.1 445.4Z" fill="#03CADA"/>
<path d="M535.6 435.7L426.5 544.8C427.9 546.5 429.2 548.4 430.8 550.1L540.7 440.2C539 438.4 537.3 437.1 535.6 435.7Z" fill="#03CADA"/>
<path d="M554.7 538.5L529.3 563.9C534.4 560.8 539.2 557.1 543.5 552.6C547.8 548.4 551.6 543.6 554.7 538.5Z" fill="#03CADA"/>
<path d="M146.4 73.2C153.6 73.2 160.6 72.3 167.4 70.8H125.4C132.3 72.2 139.3 73.2 146.4 73.2Z" fill="#03CADA"/>
<path d="M102.6 61.8H190.3C194.4 59.4 198.5 56.9 202.2 53.9H90.6001C94.4001 56.8 98.3001 59.6 102.6 61.8Z" fill="#03CADA"/>
<path d="M80.9001 45.0999H212C214.4 42.4999 216.6 40 218.7 37.2H74.1001C76.3001 39.9 78.5001 42.4999 80.9001 45.0999Z" fill="#03CADA"/>
<path d="M60.5999 11.6H232.3C233.2 8.99995 234 6.29995 234.5 3.69995H58.3999C58.8999 6.29995 59.6999 8.99995 60.5999 11.6Z" fill="#03CADA"/>
<path d="M68.3002 28.3H224.8C226.3 25.7 227.7 23.2 228.9 20.4H64.2002C65.4002 23 66.7002 25.8 68.3002 28.3Z" fill="#03CADA"/>
<path d="M880.3 786.1C880.3 783.9 878.6 782.2 876.4 782.2C874.2 782.2 872.5 783.9 872.5 786.1C872.5 788.3 874.2 790 876.4 790C878.6 790 880.3 788.3 880.3 786.1Z" fill="#7B6490"/>
<path d="M918.2 786.1C918.2 783.9 916.5 782.2 914.3 782.2C912.1 782.2 910.4 783.9 910.4 786.1C910.4 788.3 912.1 790 914.3 790C916.5 790 918.2 788.3 918.2 786.1Z" fill="#7B6490"/>
<path d="M956.2 786.1C956.2 783.9 954.5 782.2 952.3 782.2C950.1 782.2 948.4 783.9 948.4 786.1C948.4 788.3 950.1 790 952.3 790C954.4 790 956.2 788.3 956.2 786.1Z" fill="#7B6490"/>
<path d="M994.1 786.1C994.1 783.9 992.4 782.2 990.2 782.2C988 782.2 986.3 783.9 986.3 786.1C986.3 788.3 988 790 990.2 790C992.4 790 994.1 788.3 994.1 786.1Z" fill="#7B6490"/>
<path d="M1032.2 786.1C1032.2 783.9 1030.5 782.2 1028.3 782.2C1026.1 782.2 1024.4 783.9 1024.4 786.1C1024.4 788.3 1026.1 790 1028.3 790C1030.3 790 1032.2 788.3 1032.2 786.1Z" fill="#7B6490"/>
<path d="M1132.7 677.2L1094.7 715.3C1089.1 724.3 1084.8 734.1 1081.9 744.1L1161.4 664.6C1151.5 667.3 1141.8 671.6 1132.7 677.2Z" fill="#03CADA"/>
<path d="M1179.3 660.8L1078.3 761.8C1077.6 767.4 1077.3 773.1 1077.5 778.7L1196.2 660C1190.6 660 1184.9 660.1 1179.3 660.8Z" fill="#03CADA"/>
<path d="M1223 663.7L1086.7 800H1080.1C1079.5 797.3 1079 794.6 1078.6 791.9L1209.5 661C1213.9 661.7 1218.6 662.5 1223 663.7Z" fill="#03CADA"/>
<path d="M1245 671.9L1116.9 800H1100.9L1233.8 667.1C1237.5 668.5 1241.3 670.2 1245 671.9Z" fill="#03CADA"/>
<path d="M1263.6 683.7L1147.3 800H1131.3L1254.3 677C1257.5 679.1 1260.7 681.3 1263.6 683.7Z" fill="#03CADA"/>
<path d="M1279.7 698L1177.7 800H1161.7L1271.7 690C1273.1 691.2 1274.4 692.6 1275.8 693.9C1277.1 695.3 1278.3 696.7 1279.7 698Z" fill="#03CADA"/>
<path d="M1280 712V728.1L1208.1 800H1192L1280 712Z" fill="#03CADA"/>
<path d="M1280 742.4V758.4L1238.4 800H1222.4L1280 742.4Z" fill="#03CADA"/>
<path d="M1280 772.8V789L1269 800H1252.8L1280 772.8Z" fill="#03CADA"/>
<path d="M920.1 269.5C919.4 269.5 918.9 269.3 918.4 268.8C917.4 267.8 917.4 266.2 918.4 265.4C922.2 261.6 926.3 262.2 929.7 262.5C933.1 262.8 935 263 937 261C938.9 259.1 938.9 257.1 938.5 253.7C938.2 250.3 937.6 246.2 941.4 242.4C945.2 238.6 949.3 239.2 952.7 239.5C956.1 239.8 958 240 960 238C961.9 236.1 961.9 234.1 961.5 230.7C961.2 227.3 960.6 223.2 964.4 219.4C968.2 215.6 972.3 216.2 975.7 216.5C979.1 216.8 981 217 983 215C984.9 213.1 984.9 211.1 984.5 207.7C984.2 204.3 983.6 200.2 987.4 196.4C991.2 192.6 995.3 193.2 998.7 193.5C1002.1 193.8 1004 194 1006 192C1007.9 190.1 1007.9 188.1 1007.5 184.7C1007.2 181.3 1006.6 177.2 1010.4 173.4C1014.2 169.6 1018.2 170.2 1021.7 170.5C1025.1 170.8 1027 171 1029 169C1030 168 1031.6 168 1032.4 169C1033.4 170 1033.4 171.6 1032.4 172.4C1028.6 176.2 1024.6 175.6 1021.1 175.3C1017.6 175 1015.8 174.8 1013.8 176.8C1011.9 178.7 1011.9 180.7 1012.3 184.1C1012.6 187.5 1013.2 191.6 1009.4 195.4C1005.6 199.2 1001.6 198.6 998.1 198.3C994.7 198 992.8 197.8 990.8 199.8C988.9 201.7 988.9 203.7 989.3 207.1C989.6 210.5 990.2 214.6 986.4 218.4C982.6 222.2 978.6 221.6 975.1 221.3C971.7 221 969.8 220.8 967.8 222.8C965.9 224.7 965.9 226.7 966.3 230.1C966.6 233.5 967.2 237.6 963.4 241.4C959.6 245.2 955.5 244.6 952.1 244.3C948.7 244 946.8 243.8 944.8 245.8C942.9 247.7 942.9 249.7 943.3 253.1C943.6 256.5 944.2 260.6 940.4 264.4C936.6 268.2 932.6 267.6 929.1 267.3C925.7 267 923.8 266.8 921.8 268.8C921.3 269.3 920.6 269.5 920.1 269.5Z" fill="#03CADA"/>
<path d="M937 286.4C936.3 286.4 935.8 286.2 935.3 285.7C934.3 284.7 934.3 283.1 935.3 282.3C939.1 278.5 943.2 279.1 946.6 279.4C950 279.7 951.9 279.9 953.9 277.9C955.8 276 955.8 274 955.4 270.6C955.1 267.2 954.5 263.1 958.3 259.3C962.1 255.5 966.2 256.1 969.6 256.4C973 256.7 974.9 256.9 976.9 254.9C978.8 253 978.8 251 978.4 247.6C978.1 244.2 977.5 240.1 981.3 236.3C985.1 232.5 989.2 233.1 992.6 233.4C996 233.7 997.9 233.9 999.9 231.9C1001.8 230 1001.8 228 1001.4 224.6C1001.1 221.2 1000.6 217.1 1004.3 213.3C1008.1 209.5 1012.1 210.1 1015.6 210.4C1019 210.7 1020.9 210.9 1022.9 208.9C1024.8 207 1024.8 205 1024.4 201.6C1024.1 198.2 1023.5 194.1 1027.3 190.3C1031.1 186.5 1035.1 187.1 1038.6 187.4C1042 187.7 1043.9 187.9 1045.9 185.9C1046.9 184.9 1048.5 184.9 1049.3 185.9C1050.3 186.9 1050.3 188.5 1049.3 189.3C1045.5 193.1 1041.4 192.5 1038 192.2C1034.6 191.9 1032.7 191.7 1030.7 193.7C1028.8 195.6 1028.8 197.6 1029.2 201C1029.5 204.4 1030 208.5 1026.3 212.3C1022.5 216.1 1018.4 215.5 1015 215.2C1011.6 214.9 1009.7 214.7 1007.7 216.7C1005.8 218.6 1005.8 220.6 1006.2 224C1006.5 227.4 1007 231.5 1003.3 235.3C999.5 239.1 995.4 238.5 992 238.2C988.6 237.9 986.7 237.7 984.7 239.7C982.8 241.6 982.8 243.6 983.2 247C983.5 250.4 984.1 254.5 980.3 258.3C976.5 262.1 972.4 261.5 969 261.2C965.6 260.9 963.7 260.7 961.7 262.7C959.8 264.6 959.8 266.6 960.2 270C960.5 273.4 961.1 277.5 957.3 281.3C953.5 285.1 949.5 284.5 946 284.2C942.6 283.9 940.7 283.7 938.7 285.7C938.2 286.2 937.5 286.4 937 286.4Z" fill="#03CADA"/>
<path d="M953.9 303.3C953.2 303.3 952.7 303.1 952.2 302.6C951.2 301.6 951.2 300 952.2 299.2C956 295.4 960.1 296 963.5 296.3C966.9 296.6 968.8 296.8 970.8 294.8C972.7 292.9 972.7 290.9 972.3 287.5C972 284.1 971.4 280 975.2 276.2C979 272.4 983.1 273 986.5 273.3C989.9 273.6 991.8 273.8 993.8 271.8C995.7 269.9 995.7 267.9 995.3 264.5C995 261.1 994.4 257 998.2 253.2C1002 249.4 1006.1 250 1009.5 250.3C1012.9 250.6 1014.8 250.8 1016.8 248.8C1018.7 246.9 1018.7 244.9 1018.3 241.5C1018 238.1 1017.4 234 1021.2 230.2C1025 226.4 1029 227 1032.5 227.3C1035.9 227.6 1037.8 227.8 1039.8 225.8C1041.7 223.9 1041.7 221.9 1041.3 218.5C1041 215.1 1040.4 211 1044.2 207.2C1048 203.4 1052 204 1055.5 204.3C1058.9 204.6 1060.8 204.8 1062.8 202.8C1063.8 201.8 1065.4 201.8 1066.2 202.8C1067.2 203.8 1067.2 205.4 1066.2 206.2C1062.4 210 1058.3 209.4 1054.9 209.1C1051.5 208.8 1049.6 208.6 1047.6 210.6C1045.7 212.5 1045.7 214.5 1046.1 217.9C1046.4 221.3 1047 225.4 1043.2 229.2C1039.4 233 1035.3 232.4 1031.9 232.1C1028.5 231.8 1026.6 231.6 1024.6 233.6C1022.7 235.5 1022.7 237.5 1023.1 240.9C1023.4 244.3 1023.9 248.4 1020.2 252.2C1016.4 256 1012.3 255.4 1008.9 255.1C1005.5 254.8 1003.6 254.6 1001.6 256.6C999.7 258.5 999.7 260.5 1000.1 263.9C1000.4 267.3 1001 271.4 997.2 275.2C993.4 279 989.3 278.4 985.9 278.1C982.5 277.8 980.6 277.6 978.6 279.6C976.7 281.5 976.7 283.5 977.1 286.9C977.4 290.3 978 294.4 974.2 298.2C970.4 302 966.4 301.4 962.9 301.1C959.5 300.8 957.6 300.6 955.6 302.6C955.1 303.1 954.4 303.3 953.9 303.3Z" fill="#03CADA"/>
<path d="M547.8 27C520.8 27 499 48.8 499 75.8C499 102.8 520.8 124.6 547.8 124.6C574.8 124.6 596.6 102.8 596.6 75.8C596.6 48.8 574.8 27 547.8 27ZM547.8 120.3C523.2 120.3 503.3 100.5 503.3 75.9C503.3 51.3 523.3 31.4 547.8 31.4C572.4 31.4 592.3 51.5 592.3 75.9C592.4 100.4 572.4 120.3 547.8 120.3Z" fill="#03CADA"/>
<path d="M340.7 600.4C329.1 600.4 319.5 609.8 319.5 621.6C319.5 633.2 328.9 642.8 340.7 642.8C352.3 642.8 361.9 633.2 361.9 621.6C361.8 610 352.4 600.4 340.7 600.4ZM340.7 638.8C331.1 638.8 323.5 631.1 323.5 621.6C323.5 612 331.2 604.4 340.7 604.4C350.1 604.4 357.8 612.1 357.9 621.6C357.9 631.1 350.2 638.8 340.7 638.8Z" fill="#7B6490"/>
<path d="M722.6 386C721.2 386 719.8 386.1 718.5 386.2C716.7 386.4 715 386.6 713.3 386.9C703.8 388.8 695.2 393.4 688.5 400C687.4 401.1 686.4 402.2 685.4 403.4C678.3 411.9 674 422.8 674 434.7C674 461.5 695.8 483.3 722.6 483.3C749.6 483.3 771.4 461.5 771.2 434.7C771.2 407.9 749.4 386 722.6 386ZM722.6 473.9C700.9 473.9 683.2 456.3 683.2 434.5C683.2 425.2 686.4 416.7 691.8 410C692.8 408.8 693.8 407.7 694.9 406.6C699.2 402.3 704.5 399 710.5 397.1C712.3 396.5 714 396.1 715.9 395.8C718.1 395.4 720.4 395.2 722.7 395.2C744.5 395.2 762.3 413 762.1 434.6C762 456.2 744.5 473.9 722.6 473.9Z" fill="#7B6490"/>
<path d="M722.6 188.6C709.5 188.6 698.9 199.2 698.9 212.3C698.9 225.4 709.5 236 722.6 236C735.7 236 746.3 225.2 746.3 212.3C746.3 199.2 735.7 188.6 722.6 188.6ZM722.6 234C710.6 234 700.9 224.3 700.9 212.3C700.9 200.3 710.6 190.6 722.6 190.6C734.5 190.6 744.3 200.3 744.3 212.3C744.3 224.3 734.5 234 722.6 234Z" fill="#2F2544"/>
<path d="M973.1 518.3C973.1 514.5 970 511.5 966.3 511.5C962.5 511.5 959.5 514.6 959.5 518.3C959.5 522.1 962.6 525.1 966.3 525.1C970.1 525.1 973.1 522.1 973.1 518.3Z" fill="white"/>
<path d="M881.2 678.4L896.9 734.9L933.1 698.4L881.2 678.4ZM888.5 686.4L924.2 700.2L899.3 725.5L888.5 686.4Z" fill="#2F2544"/>
<path d="M376.3 150.9C376.3 148.7 374.4 146.8 372.2 146.8C370 146.8 368.1 148.7 368.1 150.9C368.1 153.1 370 155 372.2 155C374.4 155.1 376.3 153.3 376.3 150.9Z" fill="white"/>
<path d="M393 224.8C399.2 224.8 404.3 219.8 404.3 213.5C404.3 207.3 399.3 202.2 393 202.2C386.8 202.2 381.7 207.2 381.7 213.5C381.8 219.7 386.8 224.8 393 224.8Z" fill="#2F2544"/>
<path d="M657.9 125C668.3 125 676.7 116.6 676.7 106.2C676.7 95.8 668.3 87.4 657.9 87.4C647.5 87.4 639.1 95.8 639.1 106.2C639.1 116.6 647.5 125 657.9 125Z" fill="#03CADA"/>
<path d="M599.9 360.4C603.9 350.8 599.3 339.8 589.7 335.9C580.1 331.9 569.1 336.5 565.2 346.1C561.3 355.7 565.8 366.7 575.4 370.6C584.9 374.5 595.9 369.9 599.9 360.4Z" fill="#03CADA"/>
<path d="M0 21.5V27C17.4 28.9 30.9 43.6 30.9 61.6C30.9 79.4 17.4 94.2 0 96.2V101.7C20.4 99.7 36.4 82.5 36.4 61.6C36.4 40.7 20.4 23.5 0 21.5Z" fill="#03CADA"/>
<path d="M607.8 795L609.2 800H641.2L607.8 795Z" fill="#2F2544"/>
<path d="M1027.2 602.5L983.5 646.2L1012.3 675L1056.7 629.1L1027.2 602.5Z" fill="#2F2544"/>
<path d="M108.2 544.4L67.1001 585.7L94.2001 612.8L136.2 569.5L108.2 544.4Z" fill="#03CADA"/>
<path d="M103.3 549.4L93.6998 540.7L48.2998 586.1L79.8998 617.7L89.2998 608L126 569.9L103.3 549.4ZM85.0998 603.7L79.8998 609.1L56.8998 586.1L93.8998 549.1L99.0998 553.7L117.7 570.3L85.0998 603.7Z" fill="#2F2544"/>
<path d="M220.8 588.8L250.8 558.8L230.8 539L200.4 570.6L220.8 588.8Z" fill="#03CADA"/>
<path d="M648.2 572.4L678.2 542.5L658.2 522.5L627.8 554.1L648.2 572.4Z" fill="#2F2544"/>
<path d="M680.8 0L653.2 27.6L624.5 1.9L626.3 0H616.2L614 2.2L653.3 37.5L690.7 0H680.8Z" fill="#2F2544"/>
<path d="M63.8 242.9C47.4 259.3 47.4 286.1 63.8 302.5C80.2 318.9 107 318.9 123.4 302.5L63.8 242.9Z" fill="#2F2544"/>
<path d="M31.2 477.2C22.6 485.8 11.2 489.8 0 489.5V448.9L31.2 417.7C47.6 434 47.6 460.8 31.2 477.2Z" fill="#03CADA"/>
<path d="M1138.5 611.5C1154.9 627.9 1181.7 627.9 1198.1 611.5C1214.5 595.1 1214.5 568.3 1198.1 551.9L1138.5 611.5Z" fill="#03CADA"/>
<path d="M5.5 160.6C12 154.5 22.1 154.8 28.2 161.1C34.3 167.6 34 177.7 27.7 183.8C21.2 189.9 11.1 189.6 5 183.3C-1.2 176.8 -0.999997 166.6 5.5 160.6Z" fill="#2F2544"/>
<path d="M40.5 127.1C47 121 57.1 121.3 63.2 127.6C69.3 134.1 69 144.2 62.7 150.3C56.2 156.4 46.1 156.1 40 149.8C33.8 143.4 34 133.3 40.5 127.1Z" fill="#2F2544"/>
<path d="M18.8 174.6C14 179.2 7.2 180.2 1.5 177.8C1 177.6 0.5 177.3 0 177.1V148.9C6.3 145.5 14.2 146.6 19.3 151.9C20.9 153.5 22 155.4 22.7 157.4C24.9 163.2 23.5 170 18.8 174.6Z" fill="#03CADA"/>
<path d="M31.7 117.9C38.2 111.8 48.3 112.1 54.4 118.4C60.5 124.9 60.2 135 53.9 141.1C47.4 147.2 37.3 146.9 31.2 140.6C25.1 134.1 25.3 124.1 31.7 117.9Z" fill="#03CADA"/>
<path d="M709.6 667.8C715.7 674.3 715.4 684.4 709.1 690.5C702.6 696.6 692.5 696.3 686.4 690C680.3 683.5 680.6 673.4 686.9 667.3C693.4 661 703.5 661.3 709.6 667.8Z" fill="#2F2544"/>
<path d="M742.9 702.8C749 709.3 748.7 719.4 742.4 725.5C735.9 731.6 725.8 731.3 719.7 725C713.6 718.5 713.9 708.4 720.2 702.3C726.7 696.1 736.9 696.3 742.9 702.8Z" fill="#2F2544"/>
<path d="M776.4 737.8C782.5 744.3 782.2 754.4 775.9 760.5C769.4 766.6 759.3 766.3 753.2 760C747.1 753.5 747.4 743.4 753.7 737.3C760.2 731.1 770.2 731.5 776.4 737.8Z" fill="#2F2544"/>
<path d="M809.6 772.9C815.7 779.4 815.4 789.5 809.1 795.6C802.6 801.7 792.5 801.4 786.4 795.1C780.3 788.6 780.6 778.5 786.9 772.4C793.4 766.3 803.5 766.5 809.6 772.9Z" fill="#2F2544"/>
<path d="M718.9 658.9C725 665.4 724.7 675.5 718.4 681.6C711.9 687.7 701.8 687.4 695.7 681.1C689.6 674.6 689.9 664.5 696.2 658.4C702.6 652.3 712.7 652.6 718.9 658.9Z" fill="#03CADA"/>
<path d="M752.1 694.1C758.2 700.6 757.9 710.7 751.6 716.8C745.1 722.9 735 722.6 728.9 716.3C722.8 709.8 723.1 699.7 729.4 693.6C735.9 687.4 746.2 687.6 752.1 694.1Z" fill="#03CADA"/>
<path d="M785.6 729.1C791.7 735.6 791.4 745.7 785.1 751.8C778.6 757.9 768.5 757.6 762.4 751.3C756.3 744.8 756.6 734.7 762.9 728.6C769.2 722.5 779.4 722.6 785.6 729.1Z" fill="#03CADA"/>
<path d="M818.9 764.1C825 770.6 824.7 780.7 818.4 786.8C811.9 792.9 801.8 792.6 795.7 786.3C789.6 780 789.9 769.7 796.2 763.6C802.6 757.4 812.7 757.8 818.9 764.1Z" fill="#03CADA"/>
<path d="M1175 380.9C1181.5 374.8 1191.7 375.1 1197.9 381.4C1204 387.9 1203.7 398.1 1197.4 404.3C1190.9 410.4 1180.7 410.1 1174.5 403.8C1168.4 397.3 1168.7 387.1 1175 380.9Z" fill="#2F2544"/>
<path d="M1210.4 347.3C1216.9 341.2 1227.1 341.5 1233.3 347.8C1239.4 354.3 1239.1 364.5 1232.8 370.7C1226.3 376.8 1216.1 376.5 1209.9 370.2C1203.7 363.7 1203.9 353.5 1210.4 347.3Z" fill="#2F2544"/>
<path d="M1245.7 313.9C1252.2 307.8 1262.4 308.1 1268.6 314.4C1274.7 320.9 1274.4 331.1 1268.1 337.3C1261.6 343.4 1251.4 343.1 1245.2 336.8C1239 330.1 1239.2 320 1245.7 313.9Z" fill="#2F2544"/>
<path d="M1280 281.3V302.5C1278.6 300.9 1277.6 299.2 1277 297.3C1275.1 292 1276.1 285.8 1280 281.3Z" fill="#2F2544"/>
<path d="M1166.3 371.7C1172.8 365.6 1183 365.9 1189.2 372.2C1195.3 378.7 1195 388.9 1188.7 395.1C1182.2 401.2 1172 400.9 1165.8 394.6C1159.5 388.1 1159.9 377.9 1166.3 371.7Z" fill="#03CADA"/>
<path d="M1201.7 338.1C1208.2 332 1218.4 332.3 1224.6 338.6C1230.8 345.1 1230.4 355.3 1224.1 361.5C1217.6 367.6 1207.4 367.3 1201.2 361C1194.8 354.5 1195.2 344.2 1201.7 338.1Z" fill="#03CADA"/>
<path d="M1237 304.5C1243.5 298.4 1253.7 298.7 1259.9 305C1266.1 311.5 1265.7 321.7 1259.4 327.9C1252.9 334 1242.7 333.7 1236.5 327.4C1230.2 320.9 1230.5 310.6 1237 304.5Z" fill="#03CADA"/>
<path d="M1280 266.8V298.3C1279 298.1 1278 297.8 1277 297.4C1275 296.6 1273.2 295.4 1271.7 293.8C1265.5 287.3 1265.9 277.1 1272.2 270.9C1274.4 268.7 1277.2 267.3 1280 266.8Z" fill="#03CADA"/>
<path d="M187.9 275.8L195.2 285.5L223.7 224.7L151 227.8L158.9 238L206.5 236.1L187.9 275.8Z" fill="#2F2544"/>
<path d="M206.5 236.2L158.9 238.1L133.8 239.1L178 296.8L187.9 275.8L206.5 236.2Z" fill="#03CADA"/>
<path d="M1022.5 373.6L1012.4 372.1L1029.5 425.2L1072.2 382.2L1061.4 380.3L1033.6 408.5L1022.5 373.6Z" fill="#2F2544"/>
<path d="M1033.6 408.4L1061.4 380.2L1076.1 365.4L1016.5 355.3L1022.5 373.6L1033.6 408.4Z" fill="#03CADA"/>
<path d="M303 487.1L280.9 509.2L303 531.3L325.1 509.2L303 487.1Z" fill="white"/>
<path d="M191.1 630.6L158.5 663.2L191.1 695.8L223.7 663.2L191.1 630.6Z" fill="#2F2544"/>
<path d="M1147.6 248.7L1120.6 275.7L1147.6 302.7L1174.6 275.7L1147.6 248.7Z" fill="#03CADA"/>
<path d="M283.3 400.9L299 448.7L334.8 413.4L283.3 400.9Z" fill="#2F2544"/>
<path d="M588.3 180.9L604 228.3L639.7 193.1L588.3 180.9Z" fill="#2F2544"/>
<path d="M908 482L888.7 481L889 472.5L901.3 473.2L904.5 457.7L920.4 458.6L923.8 443.1L939.7 444L942.3 432.1L950.7 434L946.6 452.9L930.7 452L927.3 467.5L911.4 466.6L908 482Z" fill="#03CADA"/>
<path d="M68.1001 715.3L85.6001 790.3L87.9001 800H89.7001L87.1001 788.8L70.5001 717.7L304.8 784.3L288.3 800H290.7L308.1 783.4L68.1001 715.3Z" fill="#03CADA"/>
<path d="M782.7 281.3C782.7 279.6 781.3 278.2 779.6 278.2C777.9 278.2 776.5 279.6 776.5 281.3C776.5 283 777.9 284.4 779.6 284.4C781.3 284.3 782.7 283 782.7 281.3Z" fill="#2F2544"/>
<path d="M811.5 281.3C811.5 279.6 810.1 278.2 808.4 278.2C806.7 278.2 805.3 279.6 805.3 281.3C805.3 283 806.7 284.4 808.4 284.4C810.2 284.3 811.5 283 811.5 281.3Z" fill="#2F2544"/>
<path d="M840.4 281.3C840.4 279.6 839 278.2 837.3 278.2C835.6 278.2 834.2 279.6 834.2 281.3C834.2 283 835.6 284.4 837.3 284.4C839 284.3 840.4 283 840.4 281.3Z" fill="#2F2544"/>
<path d="M796.7 295.4C796.7 293.7 795.3 292.3 793.6 292.3C791.9 292.3 790.5 293.7 790.5 295.4C790.5 297.1 791.9 298.5 793.6 298.5C795.3 298.5 796.7 297 796.7 295.4Z" fill="#2F2544"/>
<path d="M825.7 295.4C825.7 293.7 824.3 292.3 822.6 292.3C820.9 292.3 819.5 293.7 819.5 295.4C819.5 297.1 820.9 298.5 822.6 298.5C824.3 298.3 825.7 297 825.7 295.4Z" fill="#2F2544"/>
<path d="M782.7 310.6C782.7 308.9 781.3 307.5 779.6 307.5C777.9 307.5 776.5 308.9 776.5 310.6C776.5 312.3 777.9 313.7 779.6 313.7C781.3 313.7 782.7 312.3 782.7 310.6Z" fill="#2F2544"/>
<path d="M811.5 310.6C811.5 308.9 810.1 307.5 808.4 307.5C806.7 307.5 805.3 308.9 805.3 310.6C805.3 312.3 806.7 313.7 808.4 313.7C810.2 313.7 811.5 312.3 811.5 310.6Z" fill="#2F2544"/>
<path d="M840.4 310.6C840.4 308.9 839 307.5 837.3 307.5C835.6 307.5 834.2 308.9 834.2 310.6C834.2 312.3 835.6 313.7 837.3 313.7C839 313.7 840.4 312.3 840.4 310.6Z" fill="#2F2544"/>
<path d="M796.7 324.8C796.7 323.1 795.3 321.7 793.6 321.7C791.9 321.7 790.5 323.1 790.5 324.8C790.5 326.5 791.9 327.9 793.6 327.9C795.3 327.9 796.7 326.3 796.7 324.8Z" fill="#2F2544"/>
<path d="M825.7 324.8C825.7 323.1 824.3 321.7 822.6 321.7C820.9 321.7 819.5 323.1 819.5 324.8C819.5 326.5 820.9 327.9 822.6 327.9C824.3 327.7 825.7 326.3 825.7 324.8Z" fill="#2F2544"/>
<path d="M782.7 339.8C782.7 338.1 781.3 336.7 779.6 336.7C777.9 336.7 776.5 338.1 776.5 339.8C776.5 341.5 777.9 342.9 779.6 342.9C781.3 342.9 782.7 341.5 782.7 339.8Z" fill="#2F2544"/>
<path d="M811.5 339.8C811.5 338.1 810.1 336.7 808.4 336.7C806.7 336.7 805.3 338.1 805.3 339.8C805.3 341.5 806.7 342.9 808.4 342.9C810.2 342.9 811.5 341.5 811.5 339.8Z" fill="#2F2544"/>
<path d="M840.4 339.8C840.4 338.1 839 336.7 837.3 336.7C835.6 336.7 834.2 338.1 834.2 339.8C834.2 341.5 835.6 342.9 837.3 342.9C839 342.9 840.4 341.5 840.4 339.8Z" fill="#2F2544"/>
<path d="M796.7 353.8C796.7 352.1 795.3 350.7 793.6 350.7C791.9 350.7 790.5 352.1 790.5 353.8C790.5 355.5 791.9 356.9 793.6 356.9C795.3 356.9 796.7 355.5 796.7 353.8Z" fill="#2F2544"/>
<path d="M825.7 353.8C825.7 352.1 824.3 350.7 822.6 350.7C820.9 350.7 819.5 352.1 819.5 353.8C819.5 355.5 820.9 356.9 822.6 356.9C824.3 356.9 825.7 355.5 825.7 353.8Z" fill="#2F2544"/>
<path d="M849.7 286.9C840.4 286.9 832 290.3 825.6 296C824.7 296.7 823.9 297.5 823.2 298.4C817 304.9 813.2 313.7 813.2 323.4C813.2 343.5 829.6 359.9 849.7 359.9C869.8 359.9 886.2 343.5 886.4 323.4C886.5 303.3 869.9 286.9 849.7 286.9ZM849.7 345.8C845.6 345.8 841.7 344.7 838.4 342.7C836.9 341.8 835.5 340.7 834.2 339.5C830 335.4 827.4 329.7 827.4 323.5C827.4 311.2 837.5 301.2 849.7 301.2C862 301.2 872.1 311.3 872.1 323.5C872.1 335.7 862 345.8 849.7 345.8Z" fill="#03CADA"/>
<path d="M167.2 7.7C168.6 6.3 168.6 4.1 167.2 2.8C165.8 1.4 163.6 1.4 162.3 2.8C160.9 4.2 160.9 6.4 162.3 7.7C163.7 9.1 165.9 9.1 167.2 7.7Z" fill="#7B6490"/>
<path d="M190.8 31.3C192.2 29.9 192.2 27.7 190.8 26.4C189.4 25 187.2 25 185.9 26.4C184.5 27.8 184.5 30 185.9 31.3C187.2 32.7 189.4 32.7 190.8 31.3Z" fill="#7B6490"/>
<path d="M214.2 54.7C215.6 53.3 215.6 51.1 214.2 49.8C212.8 48.4 210.6 48.4 209.3 49.8C207.9 51.2 207.9 53.4 209.3 54.7C210.6 56 212.8 56 214.2 54.7Z" fill="#7B6490"/>
<path d="M143.9 7.2C145.3 5.8 145.3 3.6 143.9 2.3C142.5 0.9 140.3 0.9 139 2.3C137.6 3.7 137.6 5.9 139 7.2C140.3 8.6 142.5 8.6 143.9 7.2Z" fill="#7B6490"/>
<path d="M167.2 30.6C168.6 29.2 168.6 27 167.2 25.7C165.8 24.3 163.6 24.3 162.3 25.7C160.9 27.1 160.9 29.3 162.3 30.6C163.7 32 165.9 32 167.2 30.6Z" fill="#7B6490"/>
<path d="M190.8 54.0001C192.2 52.6001 192.2 50.4 190.8 49.1C189.4 47.7 187.2 47.7 185.9 49.1C184.5 50.5 184.5 52.7001 185.9 54.0001C187.2 55.4001 189.4 55.4001 190.8 54.0001Z" fill="#7B6490"/>
<path d="M120 8.2C121.4 6.8 121.4 4.6 120 3.3C118.6 1.9 116.4 1.9 115.1 3.3C113.7 4.7 113.7 6.9 115.1 8.2C116.4 9.6 118.6 9.6 120 8.2Z" fill="#7B6490"/>
<path d="M143.4 31.6C144.8 30.2 144.8 28 143.4 26.7C142 25.3 139.8 25.3 138.5 26.7C137.1 28.1 137.1 30.3 138.5 31.6C139.9 33 142 33 143.4 31.6Z" fill="#7B6490"/>
<path d="M166.9 55.0001C168.3 53.6001 168.3 51.4 166.9 50.1C165.5 48.7 163.3 48.7 162 50.1C160.6 51.5 160.6 53.7001 162 55.0001C163.3 56.4001 165.5 56.4001 166.9 55.0001Z" fill="#7B6490"/>
<path d="M190.3 78.6C191.7 77.2 191.7 75 190.3 73.7C188.9 72.3 186.7 72.3 185.4 73.7C184 75.1 184 77.3 185.4 78.6C186.7 79.9 188.9 79.9 190.3 78.6Z" fill="#7B6490"/>
<path d="M96.5999 7.60005C97.9999 6.20005 97.9999 4.00005 96.5999 2.60005C95.1999 1.20005 92.9999 1.20005 91.6999 2.60005C90.2999 4.00005 90.2999 6.20005 91.6999 7.50005C92.9999 8.90005 95.1999 8.90005 96.5999 7.60005Z" fill="#7B6490"/>
<path d="M120 31.1C121.4 29.7 121.4 27.5 120 26.2C118.6 24.8 116.4 24.8 115.1 26.2C113.7 27.6 113.7 29.8 115.1 31.1C116.4 32.5 118.6 32.5 120 31.1Z" fill="#7B6490"/>
<path d="M143.4 54.5001C144.8 53.1001 144.8 50.9 143.4 49.6C142 48.2 139.8 48.2 138.5 49.6C137.1 51 137.1 53.2001 138.5 54.5001C139.9 55.9001 142 55.9001 143.4 54.5001Z" fill="#7B6490"/>
<path d="M166.9 77.9C168.3 76.5 168.3 74.3 166.9 73C165.5 71.6 163.3 71.6 162 73C160.6 74.4 160.6 76.6 162 77.9C163.3 79.2 165.5 79.2 166.9 77.9Z" fill="#7B6490"/>
<path d="M72.9002 8.39995C74.3002 6.99995 74.3002 4.79995 72.9002 3.49995C71.5002 2.09995 69.3002 2.09995 68.0002 3.49995C66.6002 4.89995 66.6002 7.09995 68.0002 8.39995C69.3002 9.79995 71.5002 9.79995 72.9002 8.39995Z" fill="#7B6490"/>
<path d="M96.4002 31.8C97.8002 30.4 97.8002 28.2 96.4002 26.9C95.0002 25.5 92.8002 25.5 91.5002 26.9C90.1002 28.3 90.1002 30.5 91.5002 31.8C92.8002 33.2 95.1002 33.2 96.4002 31.8Z" fill="#7B6490"/>
<path d="M119.8 55.4C121.2 54 121.2 51.8 119.8 50.5C118.4 49.1 116.2 49.1 114.9 50.5C113.5 51.9 113.5 54.1 114.9 55.4C116.2 56.7 118.4 56.7 119.8 55.4Z" fill="#7B6490"/>
<path d="M140.8 79.8C142.7 79.8 144.2 78.3 144.2 76.4C144.2 74.5 142.7 73 140.8 73C138.9 73 137.4 74.5 137.4 76.4C137.4 78.3 138.9 79.8 140.8 79.8Z" fill="#7B6490"/>
<path d="M166.7 102.1C168.1 100.7 168.1 98.5 166.7 97.2C165.3 95.8 163.1 95.8 161.8 97.2C160.4 98.6 160.4 100.8 161.8 102.1C163.2 103.5 165.4 103.5 166.7 102.1Z" fill="#7B6490"/>
<path d="M72.9002 31.3C74.3002 29.9 74.3002 27.7 72.9002 26.4C71.5002 25 69.3002 25 68.0002 26.4C66.6002 27.8 66.6002 30 68.0002 31.3C69.3002 32.7 71.5002 32.7 72.9002 31.3Z" fill="#7B6490"/>
<path d="M96.4002 54.7C97.8002 53.3 97.8002 51.1 96.4002 49.8C95.0002 48.4 92.8002 48.4 91.5002 49.8C90.1002 51.2 90.1002 53.4 91.5002 54.7C92.8002 56 95.1002 56 96.4002 54.7Z" fill="#7B6490"/>
<path d="M119.8 78.0001C121.2 76.6001 121.2 74.4 119.8 73.1C118.4 71.7 116.2 71.7 114.9 73.1C113.5 74.5 113.5 76.7001 114.9 78.0001C116.2 79.4001 118.4 79.4001 119.8 78.0001Z" fill="#7B6490"/>
<path d="M140.8 102.5C142.7 102.5 144.2 101 144.2 99.1C144.2 97.2 142.7 95.7 140.8 95.7C138.9 95.7 137.4 97.2 137.4 99.1C137.4 100.9 138.9 102.5 140.8 102.5Z" fill="#7B6490"/>
<path d="M48.9998 32.3C50.3998 30.9 50.3998 28.7 48.9998 27.4C47.5998 26 45.3998 26 44.0998 27.4C42.6998 28.8 42.6998 31 44.0998 32.3C45.5998 33.7 47.5998 33.7 48.9998 32.3Z" fill="#7B6490"/>
<path d="M72.4998 55.7C73.8998 54.3 73.8998 52.1 72.4998 50.8C71.0998 49.4 68.8998 49.4 67.5998 50.8C66.1998 52.2 66.1998 54.4 67.5998 55.7C68.8998 57.1 71.1998 57.1 72.4998 55.7Z" fill="#7B6490"/>
<path d="M95.9002 79.1C97.3002 77.7 97.3002 75.5 95.9002 74.2C94.5002 72.8 92.3002 72.8 91.0002 74.2C89.6002 75.6 89.6002 77.8 91.0002 79.1C92.3002 80.4 94.5002 80.4 95.9002 79.1Z" fill="#7B6490"/>
<path d="M116.9 103.5C118.8 103.5 120.3 102 120.3 100.1C120.3 98.2 118.8 96.7 116.9 96.7C115 96.7 113.5 98.2 113.5 100.1C113.5 102 115 103.5 116.9 103.5Z" fill="#7B6490"/>
<path d="M142.8 126C144.2 124.6 144.2 122.4 142.8 121.1C141.4 119.7 139.2 119.7 137.9 121.1C136.5 122.5 136.5 124.7 137.9 126C139.3 127.4 141.5 127.4 142.8 126Z" fill="#7B6490"/>
<path d="M601.4 602.8L540.3 661.9L611.8 682.6L601.4 602.8ZM597.5 613.7L605.7 675.5L550.4 659.5L597.5 613.7Z" fill="#03CADA"/>
<path d="M653.3 370.3L685.4 403.4L691.8 410L707.1 425.8L715.8 395.7L718.5 386.2L725.8 360.8L653.3 370.3ZM713.3 387L710.4 397.1L704.7 416.8L694.8 406.6L688.5 400.1L663 373.8L719.2 366.5L713.3 387Z" fill="#03CADA"/>
<path d="M0 635.2V661.3C10.4 661.7 18.6 670.2 18.6 680.6C18.6 690.9 10.3 699.5 0 699.9V726.4C25 726 45.1 705.7 44.9 680.8C44.9 655.9 24.8 635.6 0 635.2Z" fill="#2F2544"/>
<path d="M1276.1 447C1277.4 447 1278.7 447.1 1280 447.3V409.4C1278.7 409.3 1277.4 409.3 1276.1 409.3C1240.1 409.3 1210.9 438.5 1210.9 474.5C1210.9 510.5 1240.1 539.7 1276.1 539.7C1277.4 539.7 1278.7 539.7 1280 539.6V501.7C1278.7 501.9 1277.4 502 1276.1 502C1260.9 502 1248.6 489.7 1248.6 474.5C1248.6 459.3 1260.9 447 1276.1 447Z" fill="#2F2544"/>
<path d="M220.2 638.1L209.4 648.9L191.8 666.5L213.8 688.5L242.1 660.2L220.2 638.1ZM209.2 677.7L197.8 666.3L220 644.1L236 660.1L213.8 682.3L209.2 677.7Z" fill="#03CADA"/>
</svg>
