<svg width="21" height="20" viewBox="0 0 21 20" fill="none" xmlns="http://www.w3.org/2000/svg">
<path d="M20.7472 18.5796L15.9343 13.7714C17.1273 12.3184 17.8464 10.4571 17.8464 8.42857C17.8464 3.77551 14.0671 0 9.40951 0C4.74779 0 0.972656 3.77551 0.972656 8.42857C0.972656 13.0816 4.74779 16.8571 9.40951 16.8571C11.4401 16.8571 13.299 16.1429 14.7535 14.951L19.5664 19.7551C19.8933 20.0816 20.4203 20.0816 20.7472 19.7551C21.074 19.4327 21.074 18.902 20.7472 18.5796ZM9.40951 15.1796C5.67932 15.1796 2.64777 12.151 2.64777 8.42857C2.64777 4.70612 5.67932 1.67347 9.40951 1.67347C13.1356 1.67347 16.1713 4.70612 16.1713 8.42857C16.1713 12.151 13.1356 15.1796 9.40951 15.1796Z" fill="white"/>
</svg>
